<svg xmlns="http://www.w3.org/2000/svg" version="1.1" viewBox="0 0 533.317 375.5"><defs><style>@font-face{font-family:&quot;Virgil&quot;;src:url(https://excalidraw.com/FG_Virgil.woff2)}@font-face{font-family:&quot;Cascadia&quot;;src:url(https://excalidraw.com/Cascadia.woff2)}</style></defs><g><text x="0" y="18" fill="#000" font-family="Virgil" font-size="20" text-anchor="start" transform="translate(-66 139.5) rotate(270 88.5 12.5)">Cost Function (C)</text></g><g><text x="0" y="18" fill="#000" font-family="Virgil" font-size="20" text-anchor="start" transform="translate(235.5 326.5) rotate(0 5 12.5)">v</text></g><g><g><path d="M0 0 C60.166666666666664 0, 300.8333333333333 0, 361 0 M0 0 C60.166666666666664 0, 300.8333333333333 0, 361 0" transform="translate(63.5 297) rotate(0 180.5 0)" style="stroke:#000;stroke-width:4;fill:none"/></g></g><g><g><path d="M0 0 C0 -47.5, 0 -237.5, 0 -285 M0 0 C0 -47.5, 0 -237.5, 0 -285" transform="translate(64.5 295) rotate(0 0 -142.5)" style="stroke:#000;stroke-width:4;fill:none"/></g></g><g><g><path d="M-0.6347719341516495 -0.2760334342718125 C2.980052612566948 16.021516862511632, 8.435799120557293 65.63875557482243, 20.590719669127463 98.84028231203555 C32.745640217697634 132.04180904924868, 53.88037938857085 177.3736199051142, 72.29475135726938 198.933126989007 C90.70912332596791 220.49263407289982, 106.04028737788214 232.52062514523666, 131.07695148131862 228.1973248153925 C156.1136155847551 223.87402448554835, 198.73033067238345 197.7016788472732, 222.51473597788825 172.99332500994205 C246.29914128339306 148.2849711726109, 258.2670984977248 111.63764689664046, 273.78338331434753 79.94720179140567 C289.29966813097025 48.25675668617089, 308.54762907699353 -0.918313154578211, 315.6124448776245 -17.149345621466637 M1.604523290321231 -0.9762529038637877 C5.476167569229006 15.546589896753428, 9.687329886373861 65.54035230644047, 21.656702994892 98.68140029199421 C33.62607610341014 131.82244827754795, 55.196211323306024 176.56694150693716, 73.42076194143006 197.87003500945866 C91.6453125595541 219.17312851198017, 105.88732897457793 230.7855392472694, 131.0040067036362 226.4999613071233 C156.12068443269447 222.2143833669772, 200.1389498967381 196.81025766936443, 224.12082831577973 172.1565673685819 C248.10270673482137 147.50287706779937, 259.6754196630927 110.1986203734825, 274.8952772178861 78.57781950242817 C290.1151347726794 46.95701863137384, 308.8783297193856 -1.7676042484492065, 315.43997364453975 -17.568237857744098" transform="translate(107.5 36) rotate(0 157.48883647173642 105.7211790449634)" style="stroke:#000;stroke-width:2;fill:none"/></g></g><g><path d="M10.272850839987928 1.23037019872055 C11.639190605613829 1.449714005630003, 13.681167302530017 2.115571635175715, 14.694344388863044 3.6241876496798 C15.70752147519607 5.132803664183885, 16.54246626275127 8.53949448398803, 16.351913357986085 10.28206628574506 C16.1613604532209 12.02463808750209, 14.9407756347914 13.012748955583733, 13.551026960271951 14.079618460221987 C12.161278285752502 15.14648796486024, 9.598019016070749 16.37461350814511, 8.013421310869395 16.683283313574577 C6.428823605668042 16.991953119004044, 5.195054805648645 16.949374560259866, 4.043440729063831 15.931637292798786 C2.8918266524790166 14.913900025337709, 1.7193446409316335 12.539400735024726, 1.1037368513605106 10.576859708808108 C0.48812906178938775 8.61431868259149, -0.41491900661050496 5.890565271905, 0.34979399163709424 4.156391135499077 C1.1145069898846933 2.4222169990931537, 3.726139322064159 0.6602787893340409, 5.692014840846106 0.1718148903725698 C7.657890359628053 -0.31664900858890127, 11.010822979867957 1.1515491314928974, 12.145047104328773 1.2256077417302507 C13.27927122878959 1.299666351967604, 12.507989727790893 0.6546104200953006, 12.497359587611003 0.6161665517966899 M7.550346376511969 0.1185488231746028 C9.193354782776543 -0.5096979852747103, 10.55419507026668 -0.9349597280760387, 11.938014931677419 -0.12686151567883286 C13.321834793088158 0.681236696718373, 14.892848232861263 3.159737239234187, 15.85326554497641 4.967138097557838 C16.813682857091557 6.774538955881488, 17.965363606755023 9.090122771289426, 17.700518804368297 10.71754363426307 C17.43567400198157 12.344964497236713, 16.0115674262428 13.551555161313548, 14.264196730656062 14.7316632753997 C12.516826035069325 15.911771389485853, 9.130474124888265 17.658919802832877, 7.216294630847876 17.79819231877999 C5.302115136807487 17.937464834727102, 4.169090233311247 16.779325301327447, 2.7791197664137304 15.567298371082385 C1.3891492995162136 14.355271440837326, -1.0513255400144312 12.269731539157673, -1.1235281705372255 10.526030737309629 C-1.1957308010600198 8.782329935461584, 1.3659621300641862 6.832854213584651, 2.3459039832769646 5.105093559994123 C3.325845836489743 3.3773329064035957, 3.9242387217771224 1.15799390883714, 4.756122948739445 0.1594668157664625 C5.588007175701767 -0.839060277304215, 7.22907124148737 -1.0979893099549618, 7.337209345050899 -0.8860689984299412" transform="translate(118.5 120) rotate(0 8.5 8.5)" style="stroke:none;stroke-width:0;fill:#c92a2a"/><path d="M6.835950726762598 0.7708197623851465 C8.520563552207479 -0.11956127046741083, 9.864190199085861 -0.6922434654483748, 11.455682073701883 -0.130859042872995 C13.047173948317905 0.4305253797023848, 15.453292735488452 2.2423924108362288, 16.384901974458725 4.139126297837425 C17.316511213428996 6.035860184838621, 17.596802857695447 9.34646926659132, 17.04533750752352 11.249544279134183 C16.493872157351593 13.152619291677045, 14.541129286963722 14.495798681887234, 13.076109873427157 15.5575763730946 C11.611090459890592 16.619354064301966, 9.839554003798701 17.626347564448118, 8.255221026304135 17.620210426378375 C6.670888048809568 17.61407328830863, 4.986780297118719 16.872996595448818, 3.5701120084597564 15.52075354467614 C2.1534437198007934 14.16851049390346, 0.03959783763908192 11.467243225825536, -0.2447887056496434 9.506752121742295 C-0.5291752489383688 7.546261017659053, 0.657899441036456 5.450702326442737, 1.8637927487274046 3.757806920176691 C3.0696860564183535 2.064911513910645, 6.1636473835623065 0.023146058702433137, 6.990571140496048 -0.6506203158539776 C7.817494897429789 -1.3243866904103885, 7.0037804038918665 -0.5192169617526282, 6.825335290329851 -0.28479132716177347 M10.610384568623534 0.8734579288314812 C12.28441599544513 1.4871356366511987, 14.856581278290939 3.29275757765922, 16.052107927939648 4.606338486140008 C17.247634577588357 5.919919394620797, 18.129327860507644 7.076030408296822, 17.783544466515785 8.754943379716211 C17.437761072523926 10.4338563511356, 15.464173199649572 13.38006823346127, 13.9774075639885 14.679816314656339 C12.490641928327427 15.979564395851408, 10.60325973622282 16.645778941829644, 8.862950652549356 16.553431866886633 C7.122641568875895 16.461084791943623, 4.8184675527428045 15.241406298372322, 3.5355530619477262 14.125733864998274 C2.252638571152648 13.010061431624226, 1.7294880659697407 11.347676856376971, 1.1654637077788887 9.859397266642347 C0.6014393495880369 8.371117676907723, -0.6194415145311581 6.4857271403758, 0.15140691280261542 5.196056326590525 C0.922255340136389 3.90638551280525, 4.183329913949246 2.7332325499286125, 5.79055427178153 2.121372383930696 C7.397778629613814 1.5095122179327798, 8.950302227541682 1.601466939143941, 9.794753059796323 1.5248953306030266 C10.639203892050963 1.4483237220621124, 10.880548562769253 1.9429528504657945, 10.857259265309368 1.66194273268521" transform="translate(118.5 120) rotate(0 8.5 8.5)" style="stroke:#c92a2a;stroke-width:1;fill:none"/></g><g><g><path d="M-0.3240499645471573 0.9841613441705703 C-10.13665305674076 -35.11303526659807, -49.303490462899205 -181.25480127433937, -59.1477555423975 -217.70778706967832 M1.5377793800085784 1.6884523940831424 C-8.668323575332762 -34.95063822103044, -50.994736398532986 -181.8273602524648, -61.254485212638976 -218.55569929592312" transform="translate(154.5 239) rotate(0 -29.858352916315198 -108.43362345091998)" style="stroke:#c92a2a;stroke-width:2;fill:none"/></g></g><g><text x="0" y="18" fill="#000" font-family="Virgil" font-size="20" text-anchor="start" transform="translate(27.5 340.5) rotate(0 64 12.5)">Tangent lines</text></g><g><g><path d="M-0.7525482326745987 0.1442605644464492 C13.633914837241171 -4.496891531348229, 78.08785583277543 -43.11109609703223, 85.80170639455318 -27.430628523230553 C93.51555695633093 -11.750160949428876, 52.18030015726884 74.06889152427514, 45.530555137991904 94.22706600725651 M1.6453589140623808 1.1201407051831485 C16.34079244248569 -3.258008773252368, 80.84878678989907 -40.802864781940976, 88.13197989575565 -25.338451979085804 C95.41517300161223 -9.87403917623063, 52.12411092710992 73.98856252280375, 45.344517549201846 93.90661752231419" transform="translate(134.5 126) rotate(0 44.06712383165211 31.598687899804133)" style="stroke:#364fc7;stroke-width:2;fill:none"/></g><g><path d="M47.305115136915134 61.95881814494737 C46.00893815040956 70.85741819442363, 46.663167401114876 79.17319312184802, 44.541881506964565 93.86222268648446 M47.68324911188452 64.86392389222988 C46.37227198508822 74.42347759280923, 46.921714992270054 85.07533880420337, 46.31818190000951 93.65849535919726" transform="translate(134.5 126) rotate(0 44.06712383165211 31.598687899804133)" style="stroke:#364fc7;stroke-width:2;fill:none"/></g><g><path d="M66.15457583022351 70.07163725776275 C59.98762772645674 76.76775815451816, 55.799229503314805 82.99926333198519, 44.541881506964565 93.86222268648446 M66.5327098051929 72.97674300504525 C58.53557018982058 79.80534024609302, 52.47179332725399 87.61086768542374, 46.31818190000951 93.65849535919726" transform="translate(134.5 126) rotate(0 44.06712383165211 31.598687899804133)" style="stroke:#364fc7;stroke-width:2;fill:none"/></g></g><g><text x="0" y="18" fill="#364fc7" font-family="Virgil" font-size="20" text-anchor="start" transform="translate(175 64.5) rotate(0 104.5 12.5)">Movement Down Slope</text></g><g><g><path d="M0.46917778551578526 -1.1191153675317764 C-17.368161647518477 -21.897554031014444, -88.1718478212754 -104.89951411783696, -106.21790612637997 -125.54662648737431 M-1.0253002428263427 -1.7480214703828096 C-18.995667255644996 -22.66076390631497, -90.2309386340032 -104.27213530190289, -108.10439684860408 -124.78027896769345" transform="translate(223.5 291) rotate(0 -53.81760953154418 -63.33287092745303)" style="stroke:#2b8a3e;stroke-width:2;fill:none"/></g></g><g><path d="M9.718486068934597 -0.2663234055110717 C11.690596273443658 -0.3342455127617274, 14.398429093850295 0.7907250630099585, 15.532345451102584 2.22030254929245 C16.66626180835487 3.6498800355749417, 16.53418361666537 6.311634074145951, 16.52198421244833 8.311141512183877 C16.50978480823129 10.310648950221802, 16.497188818235035 12.794784201839388, 15.459149025800343 14.217347177520002 C14.421109233365652 15.639910153200617, 11.947143512956945 16.670705839277257, 10.293745457840178 16.846519366267565 C8.64034740272341 17.02233289325787, 7.094934436656469 16.132721988260933, 5.538760695099744 15.272228339461845 C3.982586953543019 14.411734690662758, 1.8722948324946196 13.314372112587943, 0.9567030084998285 11.683557473473037 C0.04111118450503737 10.052742834358131, -0.2809142406635335 7.3292278870892, 0.04520975113099723 5.4873405047724155 C0.37133374292552795 3.6454531224556312, 1.144710002162415 1.4302323971452657, 2.913446959267013 0.6322331795723306 C4.682183916371611 -0.1657660380006044, 9.390309991107207 0.5699796698275289, 10.657631493758585 0.6993451993348057 C11.924952996409962 0.8287107288420824, 10.598319917736223 1.2729695487967871, 10.51737597517528 1.4084263566159914 M11.373754885948463 -0.47681381276762025 C12.91624090301794 -0.36498151744419527, 14.394565012123667 1.434926489899727, 15.20596619633891 3.3475260685485537 C16.017367380554152 5.2601256471973805, 16.297015444896232 8.856469149733384, 16.242161991239918 10.99878365912534 C16.187308537583604 13.141098168517297, 15.844944335375484 15.428208691748825, 14.876845474401032 16.201413124900295 C13.90874661342658 16.974617558051765, 12.252798431943852 15.720197903618082, 10.433568825393204 15.63801025803416 C8.614339218842556 15.555822612450239, 5.627358173838381 16.372802727026098, 3.961467835097144 15.708287251396765 C2.2955774963559072 15.043771775767434, 0.7771577853120732 13.469670179561243, 0.4382267929457839 11.650917404258172 C0.09929580057949455 9.8321646289551, 1.290419197432716 6.550763464306755, 1.9278818808994078 4.795770599578336 C2.5653445643660997 3.040777734849918, 2.9884114307932723 1.8178538837063805, 4.263002893745936 1.1209602158876635 C5.5375943566986 0.4240665480689465, 8.46742523593571 0.5191856498132412, 9.575430658615392 0.6144085926660345 C10.683436081295074 0.7096315355188278, 10.65056163522476 1.778443548170786, 10.911035429824022 1.6922978730044234" transform="translate(163.5 219) rotate(0 8.5 8.5)" style="stroke:none;stroke-width:0;fill:#2b8a3e"/><path d="M9.302216851474356 0.34621840656263636 C11.220747051286716 0.480542285965858, 13.935216064849476 2.113558614497993, 15.378599025578998 3.3768179812847787 C16.821981986308522 4.640077348071564, 17.976174474991396 6.288596600588113, 17.96251461585149 7.9257746072833495 C17.948854756711583 9.562952613978586, 16.657286461097886 11.844626646801984, 15.296639870739558 13.199886021456201 C13.93599328038123 14.555145396110419, 11.43544548250891 15.509695950541662, 9.798635073701515 16.057330855208654 C8.16182466489412 16.604965759875647, 7.0041008531153155 17.065729402089005, 5.475777417895182 16.48569544945816 C3.947453982675049 15.905661496827314, 1.4856977130903357 14.21452525965576, 0.6286944623807189 12.57712713942358 C-0.22830878832889778 10.939729019191399, -0.11100380428190276 8.648994813224297, 0.3337579136374824 6.661306728065075 C0.7785196315568677 4.6736186429058515, 1.5781649354854368 1.5596812358199905, 3.29726476989703 0.6509986284682423 C5.016364604308623 -0.2576839788835059, 9.26020924220307 1.2787761585366693, 10.648356920107041 1.2092110839545853 C12.036504598011012 1.1396460093725014, 11.634311689682306 0.28898453053427103, 11.626150837320855 0.23360818097573866 M8.412151060491263 -0.7449805340547737 C9.742058613138584 -0.6966941309655404, 11.892296637696838 2.6051606483161445, 13.243373171826583 3.801418602847308 C14.594449705956329 4.997676557378472, 16.226449032217985 5.002928213870017, 16.518610265269743 6.432567193132208 C16.8107714983215 7.862206172394399, 15.771560756661472 10.800896820275263, 14.996340570137125 12.379252478420455 C14.221120383612778 13.957608136565646, 13.562489903177582 15.2732977338431, 11.867289146123666 15.902701142003353 C10.17208838906975 16.53210455016361, 6.734039305953027 16.879661742468066, 4.825136027813624 16.15567292738198 C2.9162327496742213 15.431684112295892, 1.0292868687645096 13.361312967634062, 0.41386947728725065 11.558768251486836 C-0.20154791419000817 9.75622353533961, 0.38621389313680166 7.053491773486365, 1.1326316789500712 5.340404630498622 C1.879049464763341 3.6273174875108785, 3.7054748310162955 2.3255498841753868, 4.892376192166868 1.280245393560378 C6.07927755331744 0.23494090294536907, 7.705731896189606 -0.6671074751799966, 8.254039845853505 -0.9314223131914314 C8.802347795517404 -1.1957371512028663, 7.832370781877301 -0.44318010363311633, 8.18222389015026 -0.30564363450823073" transform="translate(163.5 219) rotate(0 8.5 8.5)" style="stroke:#2b8a3e;stroke-width:2;fill:none"/></g><g><text x="0" y="18" fill="#000" font-family="Virgil" font-size="20" text-anchor="start" transform="translate(343.317385967076 238.5) rotate(0 90 25)">Eventually We Will</text><text x="0" y="43" fill="#000" font-family="Virgil" font-size="20" text-anchor="start" transform="translate(343.317385967076 238.5) rotate(0 90 25)">Reach the Bottom</text></g><g><g><path d="M-1.1653057426214217 0.7264979213476181 C-9.692731031775475 3.880365166068077, -33.31127519706885 18.06829562286536, -51.01883862912655 18.240533432364465 C-68.72640206118425 18.41277124186357, -98.2353219995896 4.30509114364783, -107.41068633496761 1.759924778342247 M0.015629448965191806 0.48913099877536315 C-8.564677469655873 3.5438622414320706, -33.00603906306128 18.22172030242781, -50.81755811445415 18.6922571837157 C-68.62907716584702 19.16279406500359, -97.70261484059193 6.082363119448225, -106.85348485939204 3.312352286502719" transform="translate(338.5 265) rotate(0 -53.697528443001204 9.590694091245552)" style="stroke:#000;stroke-width:2;fill:none"/></g><g><path d="M-75.6426742780468 3.2469361398849976 C-85.81708536507023 2.3131489888237406, -95.98237653246049 4.556537085142001, -105.23759279184043 4.038345070406795 M-76.75380912753553 3.656616469148208 C-86.36993990386348 4.08653354819631, -95.34856900796095 3.419732371212604, -106.5971938946098 2.7335132899135353" transform="translate(338.5 265) rotate(0 -53.697528443001204 9.590694091245552)" style="stroke:#000;stroke-width:2;fill:none"/></g><g><path d="M-82.63946984583461 22.538510833735792 C-90.52013369487096 15.65094338628084, -98.50142579085703 11.87260613574631, -105.23759279184043 4.038345070406795 M-83.75060469532335 22.948191162999002 C-91.13022300730742 17.188348675824038, -97.87069201491818 10.350489296575185, -106.5971938946098 2.7335132899135353" transform="translate(338.5 265) rotate(0 -53.697528443001204 9.590694091245552)" style="stroke:#000;stroke-width:2;fill:none"/></g></g><g><g><path d="M-1.0350876957178115 0.8818400055170057 C5.267294360200564 -30.033938758571946, 31.455627649029097 -154.99775371650856, 37.898906311392786 -185.89344275891781 M1.5628508316725491 0.45249566562473786 C7.382051399076978 -30.356915155177315, 30.338006307606896 -152.70752550753454, 36.53827537171543 -183.50953192465008" transform="translate(81.5 336) rotate(0 18.431909307837486 -92.50580137670039)" style="stroke:#000;stroke-width:2;fill:none"/></g><g><path d="M42.72701657898125 -152.38483005633066 C38.417686564148134 -161.97959724456592, 39.30395721988761 -170.34358080597642, 38.01033329539001 -181.80149822883308 M42.22147187925276 -153.53303065021942 C39.519707527241565 -164.39424558010847, 39.06943346288788 -173.33681044751296, 36.85598083160818 -183.54927744172514" transform="translate(81.5 336) rotate(0 18.431909307837486 -92.50580137670039)" style="stroke:#000;stroke-width:2;fill:none"/></g><g><path d="M22.579415481971317 -156.28280035144624 C24.443476563231222 -164.50690343748713, 31.516091600849776 -171.6740106799845, 38.01033329539001 -181.80149822883308 M22.073870782242828 -157.431000945335 C25.90473229379229 -167.19053631454315, 31.996919004942313 -174.86732677847996, 36.85598083160818 -183.54927744172514" transform="translate(81.5 336) rotate(0 18.431909307837486 -92.50580137670039)" style="stroke:#000;stroke-width:2;fill:none"/></g></g><g><g><path d="M-0.9689623028039932 0.8206813484430311 C9.957069858908653 -13.780840620398521, 55.47632864415645 -73.64001792371272, 66.70937069356441 -88.16725095212459 M-0.18267116434872155 -0.7797742771357299 C10.715418080016969 -14.963859500810502, 53.82370038621127 -71.80865719549358, 64.95586838118732 -86.41737170688808" transform="translate(101.5 328) rotate(0 32.87020419538021 -43.67328480184079)" style="stroke:#000;stroke-width:2;fill:none"/></g><g><path d="M57.433090875386156 -56.5827296941592 C57.774674419557336 -68.3268878471179, 64.33710677222305 -80.86437699706612, 63.521048310324545 -86.61701232366264 M56.39880600803987 -58.54756136676805 C58.18202267520988 -66.14090485841567, 60.10187687634657 -72.734453914878, 64.62704106710851 -87.24064960502088" transform="translate(101.5 328) rotate(0 32.87020419538021 -43.67328480184079)" style="stroke:#000;stroke-width:2;fill:none"/></g><g><path d="M41.09571100815698 -69.00086246280418 C47.850743742731524 -75.69430206888322, 60.88438193221527 -83.31299188210122, 63.521048310324545 -86.61701232366264 M40.061426140810696 -70.96569413541303 C45.978857583269885 -75.41475640180279, 52.10377992073596 -78.81200991745555, 64.62704106710851 -87.24064960502088" transform="translate(101.5 328) rotate(0 32.87020419538021 -43.67328480184079)" style="stroke:#000;stroke-width:2;fill:none"/></g></g></svg>