<svg xmlns="http://www.w3.org/2000/svg" xmlns:xlink="http://www.w3.org/1999/xlink" width="112" height="100" viewBox="0 0 112 100"><defs><linearGradient id="shroom-b" x1="50%" x2="50%" y1="0%" y2="100%"><stop offset="0%" stop-color="#A24AFE"/><stop offset="100%" stop-color="#55E4FF"/></linearGradient><path id="shroom-a" d="M53.7991603,-1.13686838e-13 C85.9425965,-1.13686838e-13 112,25.3954083 112,56.722232 C112,63.2339388 109.608776,66.4909306 104.83831,67.5838894 C101.687613,68.305744 97.5135342,68.0818759 92.5136681,66.963219 L91.5665643,66.7429974 L90.7029866,66.5282416 L89.8243538,66.2968101 L88.9308732,66.0487563 L87.6784743,65.6806393 C86.4124152,65.296906 85.1056449,64.8663928 83.7605887,64.3897249 C68.6433709,59.0324083 49.3086807,47.9191864 35.559957,37.3750247 L34.3615802,36.4462953 L32.9788491,35.3650853 C26.3752418,30.3218157 20.0171762,27.7855571 13.9424881,27.4445535 L13.1846308,27.4133392 L12.7169637,27.4053143 L11.8299869,27.4136309 C8.92311161,27.491995 6.21436999,28.0713981 3.66423839,29.060899 L2.75895106,29.4324525 L3.26515039,28.5523338 C13.4474863,11.2129356 32.53872,-1.13686838e-13 53.7991603,-1.13686838e-13 Z M12.26207,35.2948806 L13.0088385,35.2995094 C17.7241533,35.423248 22.8743961,37.3568024 28.5290318,41.5853873 L29.2694592,42.149997 L31.1950915,43.6543098 L32.7489573,44.8346045 L32.6282032,45.0118086 C32.1275223,45.7548735 31.65291,46.5318056 31.2048399,47.3425259 L30.6787714,48.330711 L30.4987512,48.6885542 L30.2031744,49.2981245 L29.8017923,50.1764466 L29.4177135,51.0775178 L29.2291555,51.5473613 L27.6907967,51.3693605 L25.8235861,51.1206877 L24.9076502,50.9855864 L24.003832,50.8435361 L23.112385,50.6947073 L22.2335628,50.5392708 L21.3676191,50.3773971 L20.5148073,50.209257 L19.6753811,50.035021 L18.4418943,49.7626106 L17.6370412,49.5738817 L16.8464612,49.3796541 L16.0704078,49.1800987 L15.3091346,48.9753859 L14.1954922,48.6590202 L13.4722788,48.4421609 L12.764733,48.2207415 L11.7333459,47.8804358 L11.0660786,47.648363 L10.0962979,47.2928769 L9.47089393,47.0512172 L8.86267908,46.8060214 L8.12696895,46.4948139 L7.41900821,46.1786811 L6.87295199,45.9224526 L6.08831591,45.5329728 C5.27367122,45.1144107 4.53087483,44.6862014 3.86460054,44.2514905 L3.37931574,43.9242875 L2.99714825,43.6499685 L2.63546625,43.3743318 L2.20353163,43.0204831 C1.23560011,42.192928 0.548520194,41.3529853 0.172533559,40.5210071 L0.0305311249,40.164992 L0,40.0714396 L1.02599052,39.3291338 L1.67967748,38.868071 L2.08960749,38.5870393 L2.63765335,38.2281249 L2.79689743,38.1298124 C5.7092641,36.3682388 8.8034862,35.3434209 12.26207,35.2948806 Z"/></defs><g fill="none" fill-rule="evenodd"><path fill="#25E9C7" d="M36.0900044,52.7532712 L36.477423,51.9268564 L36.7887184,51.303882 L37.117676,50.6875116 L37.1219003,50.6870509 L37.4895813,50.0433682 L37.7941028,49.5412768 L37.7941028,49.5412768 L38.1417129,49 L39.9634613,50.2553199 C50.8873946,57.6962298 63.2664386,64.6590304 74.4257001,69.4167956 L76.0901067,70.1137068 L76.5442284,70.2988216 L76.8594214,72.4142836 C77.2636245,75.257626 77.6178389,78.2502778 77.921545,81.3900503 C78.8261517,90.7420484 71.8039178,99.0401912 62.2369466,99.9244709 C61.8739728,99.9580207 61.5100549,99.9804059 61.1457321,99.9916017 L60.5990117,100 L49.5485058,100 L48.9937187,99.9914986 C39.9656569,99.7144644 32.6128108,92.6998137 32.1694019,83.8204798 L32.1123752,82.5704697 L32.0670378,81.3387831 L32.0333654,80.1254192 L32.0097609,78.8111617 C31.8993284,70.1234214 32.726799,62.915169 34.4490277,57.1846687 L34.7112078,56.3427102 L35.0228909,55.4261014 C35.3525801,54.4901895 35.7083813,53.5993636 36.0900044,52.7532712 Z"/><use fill="url(#shroom-b)" xlink:href="#shroom-a"/></g></svg>