<svg version="1.1" xmlns="http://www.w3.org/2000/svg" viewBox="0 0 609.9849221557379 264.7699169963598">
  <!-- svg-source:excalidraw -->
  <defs>
    <style>
      @font-face {
        font-family: "Virgil";
        src: url("https://excalidraw.com/FG_Virgil.woff2");
      }
      @font-face {
        font-family: "Cascadia";
        src: url("https://excalidraw.com/Cascadia.woff2");
      }
    </style>
  </defs>
  <g><g transform="translate(8.984922155737877 76.5) rotate(0 117.79818879280242 85.9848656740412)"><path d="M1.0150778442621229 0.422620376944542 C20.00159807105859 30.17382140258948, 74.55017324984073 179.04627639551958, 113.30821548998355 178.26991699635983 C152.06625773012638 177.49355759720007, 213.60788812537987 26.23436687886715, 233.56333128511906 -4.2355360180139545 M1.4230762506276369 -1.2263059533387421 C20.645288685237368 28.49345842632155, 75.96562247045338 178.33560458851358, 114.82532638557255 177.48995797269046 C153.68503030069172 176.64431135686735, 214.6490921386828 23.83329302422702, 234.58129974134266 -6.300185648277402" style="stroke: rgb(0, 0, 0); stroke-width: 1; fill: none;"></path></g></g><g><g transform="translate(56.98492215573788 174.5) rotate(0 61.5 12.5)"><path d="M0 0 C20.5 4.166666666666667, 102.5 20.833333333333332, 123 25 M0 0 C20.5 4.166666666666667, 102.5 20.833333333333332, 123 25" style="stroke: rgb(201, 42, 42); stroke-width: 4; fill: none;"></path></g><g transform="translate(56.98492215573788 174.5) rotate(0 61.5 12.5)"><path d="M93.33037742372703 29.439988308713552 C101.03811350660428 28.286543973294457, 108.74584958948152 27.13309963787536, 123 25 M93.33037742372703 29.439988308713552 C102.69602220884545 28.038441887198086, 112.06166699396388 26.63689546568262, 123 25" style="stroke: rgb(201, 42, 42); stroke-width: 4; fill: none;"></path></g><g transform="translate(56.98492215573788 174.5) rotate(0 61.5 12.5)"><path d="M97.41778102401454 9.329962595298964 C104.06366914660082 13.400810224511458, 110.70955726918709 17.471657853723954, 123 25 M97.41778102401454 9.329962595298964 C105.4931778420314 14.276436171923226, 113.56857466004826 19.222909748547487, 123 25" style="stroke: rgb(201, 42, 42); stroke-width: 4; fill: none;"></path></g></g><g><g transform="translate(178.98492215573788 199.5) rotate(0 -69.5 -35)"><path d="M0 0 C-23.166666666666668 -11.666666666666666, -115.83333333333333 -58.333333333333336, -139 -70 M0 0 C-23.166666666666668 -11.666666666666666, -115.83333333333333 -58.333333333333336, -139 -70" style="stroke: rgb(201, 42, 42); stroke-width: 4; fill: none;"></path></g><g transform="translate(178.98492215573788 199.5) rotate(0 -69.5 -35)"><path d="M-109.20669846743996 -66.48443691708484 C-117.3379508226189 -67.44391200468107, -125.46920317779784 -68.4033870922773, -139 -70 M-109.20669846743996 -66.48443691708484 C-115.63733756488361 -67.24324229438808, -122.06797666232725 -68.00204767169134, -139 -70" style="stroke: rgb(201, 42, 42); stroke-width: 4; fill: none;"></path></g><g transform="translate(178.98492215573788 199.5) rotate(0 -69.5 -35)"><path d="M-118.43676730958353 -48.15615735911404 C-124.04892929375669 -54.11782618342174, -129.66109127792984 -60.07949500772945, -139 -70 M-118.43676730958353 -48.15615735911404 C-122.87517196118982 -52.8709711360086, -127.31357661279613 -57.585784912903165, -139 -70" style="stroke: rgb(201, 42, 42); stroke-width: 4; fill: none;"></path></g></g><g><g transform="translate(39.98492215573788 129.5) rotate(0 97.5 -21.5)"><path d="M0 0 C32.5 -7.166666666666667, 162.5 -35.833333333333336, 195 -43 M0 0 C32.5 -7.166666666666667, 162.5 -35.833333333333336, 195 -43" style="stroke: rgb(201, 42, 42); stroke-width: 4; fill: none;"></path></g><g transform="translate(39.98492215573788 129.5) rotate(0 97.5 -21.5)"><path d="M169.68011048634347 -26.909530926159228 C178.1836404149324 -32.313416486585595, 186.68717034352133 -37.71730204701197, 195 -43 M169.68011048634347 -26.909530926159228 C175.30212161998963 -30.482247790896395, 180.92413275363583 -34.054964655633555, 195 -43" style="stroke: rgb(201, 42, 42); stroke-width: 4; fill: none;"></path></g><g transform="translate(39.98492215573788 129.5) rotate(0 97.5 -21.5)"><path d="M165.26108518296763 -46.94929683681706 C175.24871771406518 -45.62294966493694, 185.23635024516273 -44.29660249305682, 195 -43 M165.26108518296763 -46.94929683681706 C171.8642937046215 -46.07239763965889, 178.46750222627537 -45.19549844250071, 195 -43" style="stroke: rgb(201, 42, 42); stroke-width: 4; fill: none;"></path></g></g><g transform="translate(27.984922155737877 15) rotate(0 105 12.5)"><text x="0" y="18" font-family="Virgil" font-size="20px" fill="#000000" text-anchor="start">Big Learning Rate (n)</text></g><g transform="translate(272.9849221557379 119) rotate(0 24 22.5)"><text x="0" y="32" font-family="Virgil" font-size="36px" fill="#000000" text-anchor="start">vs.</text></g><g><g transform="translate(362.9849221557379 64) rotate(0 117.0570751991495 85.53009687550366)"><path d="M0.46519068181514744 0.8194018989801408 C19.260127465923627 30.246240932742754, 72.8687335819006 178.27206525703272, 111.94906567037106 177.14897448122503 C151.02939775884153 176.02588370541733, 214.46202222605547 24.541540589928626, 234.9471832126379 -5.9191427558660505 M-0.8330328143388033 1.0930190516263245 C17.742320198540884 30.94163710045318, 72.36747279994191 179.18285932866237, 111.56264105431735 177.86633295305074 C150.7578093086928 176.5498065774391, 213.81265386057396 23.411170432642106, 234.33797671191394 -6.806139202043414" style="stroke: rgb(0, 0, 0); stroke-width: 1; fill: none;"></path></g></g><g><g transform="translate(394.9849221557379 132.5) rotate(0 11.5 21.5)"><path d="M0 0 C3.8333333333333335 7.166666666666667, 19.166666666666668 35.833333333333336, 23 43 M0 0 C3.8333333333333335 7.166666666666667, 19.166666666666668 35.833333333333336, 23 43" style="stroke: rgb(201, 42, 42); stroke-width: 4; fill: none;"></path></g><g transform="translate(394.9849221557379 132.5) rotate(0 11.5 21.5)"><path d="M4.840101779460177 26.729840301348162 C11.310857179021085 32.527241941115726, 17.781612578581992 38.32464358088329, 23 43 M4.840101779460177 26.729840301348162 C9.693258714106 31.077972510591344, 14.546415648751822 35.42610471983453, 23 43" style="stroke: rgb(201, 42, 42); stroke-width: 4; fill: none;"></path></g><g transform="translate(394.9849221557379 132.5) rotate(0 11.5 21.5)"><path d="M19.54696794246393 18.86337700485778 C20.77735621666067 27.4637657116806, 22.00774449085741 36.06415441850342, 23 43 M19.54696794246393 18.86337700485778 C20.46977633445322 25.313788667149808, 21.392584726442507 31.764200329441834, 23 43" style="stroke: rgb(201, 42, 42); stroke-width: 4; fill: none;"></path></g></g><g><g transform="translate(417.9849221557379 176.5) rotate(0 10 18.5)"><path d="M0 0 C3.3333333333333335 6.166666666666667, 16.666666666666668 30.833333333333332, 20 37 M0 0 C3.3333333333333335 6.166666666666667, 16.666666666666668 30.833333333333332, 20 37" style="stroke: rgb(201, 42, 42); stroke-width: 4; fill: none;"></path></g><g transform="translate(417.9849221557379 176.5) rotate(0 10 18.5)"><path d="M4.275701140616043 23.035887948717377 C7.587492283364018 25.976955338833736, 10.899283426111992 28.9180227289501, 20 37 M4.275701140616043 23.035887948717377 C8.954700849930976 27.191117813850603, 13.63370055924591 31.34634767898383, 20 37" style="stroke: rgb(201, 42, 42); stroke-width: 4; fill: none;"></path></g><g transform="translate(417.9849221557379 176.5) rotate(0 10 18.5)"><path d="M16.93044644366579 16.195485082204005 C17.576943967718602 20.5772517256691, 18.223441491771414 24.9590183691342, 20 37 M16.93044644366579 16.195485082204005 C17.8438378976347 22.38617886914589, 18.75722935160361 28.576872656087776, 20 37" style="stroke: rgb(201, 42, 42); stroke-width: 4; fill: none;"></path></g></g><g><g transform="translate(437.9849221557379 213.5) rotate(0 8.5 9.5)"><path d="M0 0 C2.8333333333333335 3.1666666666666665, 14.166666666666666 15.833333333333334, 17 19 M0 0 C2.8333333333333335 3.1666666666666665, 14.166666666666666 15.833333333333334, 17 19" style="stroke: rgb(201, 42, 42); stroke-width: 4; fill: none;"></path></g><g transform="translate(437.9849221557379 213.5) rotate(0 8.5 9.5)"><path d="M5.763421361725925 12.980091320802053 C9.745974750357203 15.11371299349949, 13.728528138988478 17.247334666196927, 17 19 M5.763421361725925 12.980091320802053 C8.86206410779616 14.640164814815986, 11.960706853866395 16.30023830882992, 17 19" style="stroke: rgb(201, 42, 42); stroke-width: 4; fill: none;"></path></g><g transform="translate(437.9849221557379 213.5) rotate(0 8.5 9.5)"><path d="M12.261804084913631 7.165748884265685 C13.941151402730696 11.360133883481101, 15.62049872054776 15.554518882696517, 17 19 M12.261804084913631 7.165748884265685 C13.568427468630468 10.429208123543184, 14.875050852347304 13.692667362820684, 17 19" style="stroke: rgb(201, 42, 42); stroke-width: 4; fill: none;"></path></g></g><g transform="translate(369.9849221557379 10) rotate(0 115 12.5)"><text x="0" y="18" font-family="Virgil" font-size="20px" fill="#000000" text-anchor="start">Small Learning Rate (n)</text></g></svg>