<svg version="1.1" xmlns="http://www.w3.org/2000/svg" viewBox="0 0 359.5 391.75">
  <!-- svg-source:excalidraw -->
  <defs>
    <style>
      @font-face {
        font-family: "Virgil";
        src: url("https://excalidraw.com/FG_Virgil.woff2");
      }
      @font-face {
        font-family: "Cascadia";
        src: url("https://excalidraw.com/Cascadia.woff2");
      }
    </style>
  </defs>
  <g transform="translate(47 10) rotate(0 51.75 51.75)"><path d="M36.744618856759075 1.697153665833227 C44.6759037772787 -1.6028742147038044, 55.39943637291511 -1.4692084736511766, 63.887050365650325 0.7951693526507384 C72.37466435838554 3.0595471789526534, 81.47108777831767 8.901345649404334, 87.67030281317037 15.283420623644716 C93.86951784802307 21.665495597885098, 98.76837434203671 30.514069351984922, 101.08234057476653 39.08761919809304 C103.39630680749636 47.66116904420115, 104.01063235291569 58.127105946864084, 101.55410020954935 66.72471970029342 C99.097568066183 75.32233345372275, 93.32558386545709 84.78659246701507, 86.34314771456843 90.67330171866904 C79.36071156367977 96.560010970323, 68.78989652226133 100.51419351881898, 59.65948330421736 102.04497521021722 C50.5290700861734 103.57575690161545, 39.67003782907907 103.14372950584425, 31.56066840630465 99.85799186705847 C23.45129898353023 96.5722542282727, 16.31600105116389 89.6572328488271, 11.003266767570828 82.33054937750254 C5.6905324839777665 75.00386590617796, 0.6235530674745036 64.94791073243267, -0.31573729525371874 55.89789103911109 C-1.255027657981941 46.8478713457895, 1.4401404683693593 35.966632214932, 5.367524591201494 28.030431217572993 C9.29490871403363 20.09423022021399, 16.115076669324313 12.886756291553501, 23.24856744173909 8.280685054957068 C30.38205821415387 3.674613818360635, 42.317948251315194 1.5500800680354843, 48.16846922569015 0.3940037979943938 C54.01899020006511 -0.7620724720466967, 58.48960361798453 0.6257001648150483, 58.35169328798885 1.3442274347105254 M62.53869637294957 1.6984261702838523 C71.08705310871159 3.071132071815171, 81.86185465199567 10.184703713836733, 88.34365531481413 16.52327711225729 C94.82545597763259 22.861850510677847, 99.09326655906696 31.270239021460853, 101.42950034986032 39.729866560807196 C103.76573414065368 48.18949410015354, 105.21365059385246 58.96594709730664, 102.36105805957428 67.28104234833535 C99.50846552529609 75.59613759936406, 91.0544391885503 83.85206572075215, 84.31394514419124 89.62043806697943 C77.57345109983217 95.38881041320671, 70.74238575816634 100.1171993899148, 61.918093793419885 101.89127642569903 C53.09380182867344 103.66535346148326, 40.15712961043158 103.61441864695091, 31.368193355712567 100.26490028168485 C22.57925710099355 96.91538191641878, 14.3698930322805 89.08965966089588, 9.184476265105793 81.79416623410262 C3.9990594979310874 74.49867280730936, 1.1431386249276572 65.17302130788086, 0.25569275266433067 56.49193972092528 C-0.6317531195989959 47.8108581339697, 0.1993784164686523 37.58525260554091, 3.8598010315258335 29.70767671236915 C7.520223646583014 21.830100819197394, 14.388633514546441 14.387367265506363, 22.21822844300742 9.226484361894741 C30.047823371468397 4.065601458283119, 43.91505515693104 0.2927670242902718, 50.8373706022917 -1.257620709300582 C57.75968604765236 -2.8080084428914356, 61.39826003155133 -0.5248853474738695, 63.75212111517139 -0.07584203965038228 C66.10598219879145 0.37320126817310495, 65.15192018704595 0.4692037251668294, 64.96053710401206 1.4366391376403413" style="stroke: rgb(95, 61, 196); stroke-width: 4; fill: none;"></path></g><g transform="translate(46.75 142.25) rotate(0 51.75 51.75)"><path d="M35.475641101315134 2.3091918088959744 C43.30638135147449 -1.1997433103397905, 54.82925846984177 0.04372976021609887, 63.309985541277285 1.9558152874750832 C71.79071261271281 3.8679008147340674, 79.8731356699785 7.620445058897066, 86.36000352992824 13.78170497244988 C92.84687138987798 19.942964886002695, 99.803091348853 30.22981900582828, 102.23119270097575 38.923374768791966 C104.6592940530985 47.616930531755656, 103.5822001860417 57.40378111363717, 100.9286116426647 65.943039550232 C98.27502309928771 74.48229798682684, 92.91613500417955 84.0963576872612, 86.30966144071377 90.15892538836094 C79.70318787724798 96.22149308946068, 69.8739136760402 100.69244855605393, 61.28977026187002 102.31844575683041 C52.70562684769983 103.9444429576069, 43.203512245774476 102.8758760319391, 34.80480095569266 99.9149085930198 C26.40608966561085 96.9539411541005, 16.606397283265867 91.36451980526516, 10.897502521379153 84.55264112331463 C5.188607759492438 77.7407624413641, 1.539414605463103 68.08746079944622, 0.5514323843723759 59.043636501316655 C-0.43654983671835146 49.99981220318708, 1.250659829827164 38.73711409799627, 4.9696091948347885 30.289695334537218 C8.688558559842413 21.84227657107817, 17.656764343557203 13.004320043978723, 22.865128574418122 8.359123920562368 C28.07349280527904 3.713927797146014, 33.19968921015789 3.4336205559123867, 36.21979458000031 2.4185185940390923 C39.23989994984273 1.4034166321657982, 40.476502367495485 1.5752709290995313, 40.98576079347265 2.2685121493226035 M57.09120834446537 -0.18243753426526865 C65.71080435070311 0.3685357880774518, 76.8295646758359 6.421784845613982, 84.15814890163726 11.882002841989667 C91.48673312743863 17.342220838365353, 98.18419138828872 24.363434637270547, 101.06271369927356 32.57887044398884 C103.9412360102584 40.79430625070714, 103.1523443049276 52.444828311545876, 101.42928276754625 61.17461768229943 C99.70622123016491 69.90440705305298, 96.39367840303788 78.24560407308383, 90.72434447498553 84.95760666851015 C85.05501054693318 91.66960926393648, 75.8100672235307 98.46060816725866, 67.41327919923215 101.44663325485739 C59.016491174933606 104.43265834245612, 49.302758084758835 105.06295267361534, 40.34361632919426 102.87375719410255 C31.38447457362969 100.68456171458976, 19.9111830338989 94.77969813537946, 13.658428665844717 88.31146037778062 C7.405674297790532 81.84322262018178, 4.8547456769628035 72.8984593292995, 2.8270901208691512 64.06433064850948 C0.799434564775499 55.23020196771946, -1.3265421188693813 43.765039222175936, 1.4924953292828036 35.306688293040494 C4.311532777434989 26.848337363905053, 12.6343992896423 19.21490443773105, 19.74131480978226 13.314225073696825 C26.84823032992222 7.413545709662601, 37.74033235119667 2.0969734066502297, 44.13398845012256 -0.0973878911648498 C50.527644549048446 -2.2917491889799293, 55.8999976181074 0.051017240977949754, 58.10325140333758 0.148057286806349 C60.30650518856776 0.24509733263474826, 57.57292513892499 -0.38971739682712325, 57.35351116150363 0.48485238380554563" style="stroke: rgb(43, 138, 62); stroke-width: 4; fill: none;"></path></g><g transform="translate(44.75 278.25) rotate(0 51.75 51.75)"><path d="M50.51510501016213 0.7442884978997242 C59.21896941748112 -0.4669002470808248, 70.58838898584857 1.7081551132127624, 78.3061799339549 5.909967078073201 C86.02397088206122 10.111779042933641, 92.71702173586401 17.91166875447193, 96.82185069880006 25.955160287062355 C100.92667966173612 33.99865181965278, 103.38890079239813 45.07910368017173, 102.93515371157125 54.17091627361576 C102.48140663074436 63.26272886705979, 98.9021588922363 73.17188785564282, 94.09936821383874 80.50603584772654 C89.29657753544119 87.84018383981025, 82.03081407880875 94.3905351707024, 74.11840964118593 98.17580422611803 C66.20600520356312 101.96107328153366, 55.56421834654089 104.19215816678229, 46.6249415881019 103.21765018022033 C37.685664829662905 102.24314219365837, 27.646167172092575 97.77660093865616, 20.482749090551966 92.32875630674627 C13.319331009011357 86.88091167483638, 7.0324353639687285 78.82733460849681, 3.6444330988582507 70.53058238876103 C0.256430833747773 62.23383016902526, -1.3957299132827263 51.608602954431284, 0.15473549988909951 42.54824298833162 C1.7052009130609254 33.48788302223196, 6.8313279643718445 22.903436444288886, 12.947225577889206 16.168422592163083 C19.063123191406568 9.43340874003728, 28.803795218760698 4.781288075864177, 36.85012118099327 2.1381598755767968 C44.89644714322584 -0.5049683247105841, 55.865398246453545 -0.008260935956104276, 61.22518135128465 0.3096533904387968 C66.58496445611576 0.6275677168336979, 69.37722485483263 2.993576679521883, 69.00881980997988 4.045645833946203 M33.36759805503695 2.0536307704256487 C41.10002866595946 -1.4017973649354505, 53.35128997942076 -1.4878874973426144, 62.3085680121614 0.6077424147134849 C71.26584604490205 2.703372326769584, 80.31051634689963 8.392871244668118, 87.1112662514808 14.627410242762245 C93.91201615606197 20.861949240856372, 100.68952131403226 29.35113291873212, 103.11306743964838 38.01497640327824 C105.53661356526449 46.67881988782436, 104.38534022527739 58.18392701450274, 101.65254300517748 66.61047115003898 C98.91974578507757 75.03701528557521, 93.35218761610652 82.40816645197613, 86.71628411904894 88.57424121649565 C80.08038062199135 94.74031598101517, 70.91472575993636 101.48472221273315, 61.83712202283198 103.60691973715609 C52.759518285727594 105.72911726157903, 40.77683524033572 104.39599357109599, 32.25066169642264 101.30742636303333 C23.724488152509558 98.21885915497067, 15.992854811669002 92.4192964255443, 10.68008075935348 85.07551648878015 C5.367306707037957 77.731736552016, 1.4716039852060803 66.17351346585801, 0.3740173825295017 57.244746742448434 C-0.7235692201470769 48.31598001903887, 0.2201035872126429 39.37511527366635, 4.094561143294008 31.502916148322747 C7.969018699375374 23.630717022979145, 18.38672499940752 14.64579737443048, 23.620762719017694 10.011551990386813 C28.85480043862787 5.377306606343147, 33.39859089591115 4.504216697414834, 35.49878746095506 3.69744384406075 C37.598984025998966 2.8906709907066657, 36.09453244814852 4.249627605521584, 36.221942109281144 5.170914870262308" style="stroke: rgb(230, 119, 0); stroke-width: 4; fill: none;"></path></g><g transform="translate(204.75 55.75) rotate(0 51.75 51.75)"><path d="M70.15102674112401 3.397036250025515 C78.26009551820532 5.78751308295036, 86.42635841297934 14.00351452165204, 92.0347399237402 21.065074701058887 C97.64312143450107 28.126634880465733, 102.63639185378533 37.0143490074303, 103.8013158056892 45.76639732646659 C104.96623975759307 54.51844564550288, 102.94761226213612 65.36841308282088, 99.02428363516344 73.57736461527664 C95.10095500819077 81.78631614773239, 87.78510661233895 89.99908518643596, 80.2613440438531 95.02010652120116 C72.73758147536725 100.04112785596635, 62.8048930733981 103.30427996075181, 53.881708224248385 103.70349262386785 C44.95852337509867 104.10270528698388, 34.53098105483155 101.84318654874535, 26.722234948954824 97.41538249989738 C18.913488843078095 92.9875784510494, 11.42433108210495 85.07875527607762, 7.029231588988019 77.13666833078003 C2.6341320958710863 69.19458138548244, 0.012255518963729173 58.83616400783279, 0.3516379902532307 49.762860828111826 C0.6910204615427322 40.68955764839086, 4.119920936694718 30.18957526644476, 9.065526416725028 22.696849252454214 C14.011131896755337 15.20412323846367, 22.118303411932775 8.518229789956026, 30.025270870435094 4.806504744168549 C37.932238328937416 1.0947796983810734, 49.076740877692565 0.19013838546783055, 56.50733116773894 0.4264989777293593 C63.937921457785315 0.662859569990888, 70.53321403943959 4.6450376498332515, 74.60881261071334 6.224668297737722 C78.6844111819871 7.804298945642192, 81.16331561784209 9.196722335546786, 80.9609225953815 9.904282865156183 M72.03454741502378 4.903166235064212 C80.45701727198261 7.946407741615992, 90.36491949723568 16.535097697102078, 95.41387352683923 24.168252174881122 C100.46282755644278 31.801406652660166, 102.13168350042812 41.84925016418425, 102.32827159264508 50.702093101738484 C102.52485968486204 59.55493603929272, 100.88371691095465 69.82892677388665, 96.59340208014098 77.28530980020652 C92.3030872493273 84.74169282652639, 84.32952872231604 90.97267456329952, 76.58638260776306 95.44039125965772 C68.84323649321007 99.90810795601591, 59.10423402873421 104.14725511088791, 50.13452539282306 104.0916099783557 C41.164816756911904 104.0359648458235, 30.31966308727468 99.91877272063974, 22.76813079229613 95.1065204644645 C15.21659849731758 90.29426820828925, 8.77228243260567 83.37687760075234, 4.825331622951751 75.21809644130428 C0.8783808132978326 67.05931528185623, -2.0437711743158564 55.16081747266033, -0.9135740656273796 46.153833507776206 C0.21662304306109692 37.146849542892085, 6.085736601973145 28.275655774250243, 11.60651427508261 21.176192651999575 C17.127291948192074 14.076729529748906, 24.182306006696532 7.140697485000212, 32.21109197302941 3.5570547742721956 C40.23987793936229 -0.026587936455820582, 53.04827531856127 -0.6306974723544212, 59.77923007307989 -0.3256636123685226 C66.51018482759851 -0.020629752382623934, 70.19614186071689 4.22030112726808, 72.59682050014112 5.387257934187588 C74.99749913956535 6.554214741107096, 74.41300376456452 6.077065264225026, 74.18330190962523 6.676077229148525" style="stroke: rgb(166, 30, 77); stroke-width: 4; fill: none;"></path></g><g transform="translate(204.25 202.25) rotate(0 51.75 51.75)"><path d="M75.08454539599889 5.225579936550062 C82.94569036572477 8.421242367079943, 90.6380323745493 16.549272230243442, 95.403790431552 24.19790764879687 C100.1695484885547 31.8465430673503, 103.4772023678957 42.07701915841742, 103.67909373801511 51.11739244787063 C103.88098510813452 60.157765737323835, 101.13118067631036 70.73968804643015, 96.61513865226846 78.44014738551613 C92.09909662822655 86.14060672460211, 84.48030757036403 93.19284845099787, 76.58284159376367 97.32014848238649 C68.68537561716332 101.4474485137751, 58.16439927507968 103.79550547623482, 49.23034279266631 103.20394757384781 C40.296286310252945 102.6123896714608, 30.366103624586408 98.84925850936516, 22.97850269928348 93.77080106806444 C15.590901773980555 88.69234362676373, 8.784844620723993 80.80400353118043, 4.904737240848746 72.73320292604355 C1.0246298609735 64.66240232090666, -1.2089898215915547 54.15989392131662, -0.3021415799679943 45.34599743724319 C0.6047066616555661 36.53210095316976, 4.461463463222934 26.84312042046882, 10.345826690590108 19.849824021602963 C16.230189917957283 12.856527622737104, 26.37057389466579 6.515160888100201, 35.00403778423505 3.3862190440480475 C43.637501673804316 0.2572771999958938, 54.99650337442803 0.679334790156517, 62.14661002800568 1.0761729572900407 C69.29671668158333 1.4730111244235644, 75.08365905275717 4.596553556989774, 77.90467770570095 5.76724804684919 C80.72569635864473 6.937942536708605, 79.60754244408346 7.1134474961104575, 79.07272194566833 8.100339896446535 M75.79544951296563 7.040990656909891 C83.65042147263088 10.02700084520795, 90.85358168520024 16.906093557462075, 95.3965417333417 24.637869294955106 C99.93950178148317 32.36964503244813, 103.23207752351472 44.30450185322975, 103.05320980181443 53.431645081868076 C102.87434208011415 62.5587883105064, 99.14949831803257 71.79626445655491, 94.32333540313999 79.40072866678506 C89.49717248824741 87.0051928770152, 82.1801102420169 95.19688205340086, 74.096232312459 99.05843034324893 C66.0123543829011 102.919978633097, 54.479567718261414 103.46748212042567, 45.820067825792584 102.57001840587353 C37.160567933323755 101.67255469132138, 29.198677131182368 98.94540650997901, 22.13923295764603 93.6736480559361 C15.079788784109692 88.40188960189319, 7.127243796852126 79.51159316810707, 3.463402784574562 70.93946768161607 C-0.2004382277030019 62.367342195125055, -1.2659634650274068 50.949375813600426, 0.15618688398064506 42.24089513699005 C1.5783372329886969 33.53241446037967, 5.799276615893745 25.131919723845268, 11.996304878622873 18.688583621953818 C18.193333141352 12.245247520062367, 28.66281960838422 6.5179871826386275, 37.33835646035541 3.5808785256413387 C46.01389331232661 0.6437698686440498, 57.76462200840936 0.6122529964257595, 64.04952599045005 1.0659316799700846 C70.33442997249074 1.5196103635144098, 72.90760295356444 5.294263031793399, 75.04778035259956 6.30295062690729 C77.18795775163468 7.31163822202118, 76.90852731447988 6.341555717283234, 76.89059038466084 7.118057250653429" style="stroke: rgb(24, 100, 171); stroke-width: 4; fill: none;"></path></g><g><g transform="translate(203.5 119.5) rotate(0 -27.10782106730622 -20.950739938211655)"><path d="M0.3943649668246507 -0.40868640728294847 C-8.480019551639757 -7.240443869307637, -45.15378322812418 -34.15353811569512, -54.20156595520675 -41.09022378511727 M-0.6225345049705358 -1.763089432725683 C-9.56528260980112 -8.823524376461284, -45.901504706979416 -34.747043936857956, -54.61000710143708 -41.49279346914031" style="stroke: rgb(166, 30, 77); stroke-width: 4; fill: none;"></path></g></g><g><g transform="translate(206 119.75) rotate(0 -31.68904359526934 91.15646262120924)"><path d="M0.9868271749466657 -0.06543814949691296 C-9.906035125131408 29.811808115119735, -53.48602034238477 149.67871941116948, -64.3649143654853 179.81866365857422 M-0.3427103030774743 0.23096014724113045 C-10.988952195156987 30.56192091043728, -53.04639943143663 151.97971178895173, -63.682732523391024 182.37836339191534" style="stroke: rgb(166, 30, 77); stroke-width: 4; fill: none;"></path></g></g><g><g transform="translate(205 118.25) rotate(0 -28.496657825591996 34.16346770744306)"><path d="M0.15144927687942977 0.2080442469567061 C-9.240816889330745 11.727935115620493, -46.74827642254531 57.548807315155855, -56.0961551528424 68.89461714439093 M-1.0040456522908063 -0.5676817295048386 C-10.584457557043061 10.799263974418864, -47.67083902909421 56.29922659366391, -57.14476492806338 67.9921574526932" style="stroke: rgb(166, 30, 77); stroke-width: 4; fill: none;"></path></g></g><g><g transform="translate(142 304) rotate(0 30.21975059475284 -29.813370184227807)"><path d="M0.9031452577561139 -0.27526285462081435 C11.157162535314757 -10.057257821286719, 50.91578052851061 -49.60810826433202, 61.186744598671794 -59.35147751383484 M-0.7472434091661126 -0.8866038574185223 C9.586565624962873 -10.410717417240765, 50.90084472993078 -48.13404151115877, 61.12519855051301 -57.96076818629168" style="stroke: rgb(24, 100, 171); stroke-width: 4; fill: none;"></path></g></g><g><g transform="translate(149.5 183.5) rotate(0 27.63942457299214 33.91553511209787)"><path d="M-0.9776094038039446 1.0164689797908066 C8.288539628311991 12.196398248150945, 46.608410469815134 55.881788446381684, 55.87412348203361 66.81460124440491 M-0.04553159714676447 1.8042741285357624 C9.454180706432089 12.706880183378235, 47.15958524881862 55.64954572365619, 56.25645854978822 66.69065682725049" style="stroke: rgb(24, 100, 171); stroke-width: 4; fill: none;"></path></g></g><g><g transform="translate(149.5 78.5) rotate(0 26.940733506223182 85.31702784594614)"><path d="M0.20519677810370918 0.2536758441478013 C9.511114537840088 28.809856078897916, 45.710561235869925 143.10141667711238, 54.886672858521344 171.7855536837131 M-1.0789698058459907 -1.1514979918207975 C8.144302405010286 27.281392251610136, 45.865496163756276 141.165320679207, 54.960436818292365 170.0656557907257" style="stroke: rgb(24, 100, 171); stroke-width: 4; fill: none;"></path></g></g><g transform="translate(328.5 87.5) rotate(0 10.5 22)"><text x="0" y="35" font-family="Cascadia" font-size="36px" fill="#a61e4d" text-anchor="start">1</text></g><g transform="translate(12 30) rotate(0 10.5 22)"><text x="0" y="35" font-family="Cascadia" font-size="36px" fill="#5f3dc4" text-anchor="start">1</text></g><g transform="translate(14 168) rotate(0 10.5 22)"><text x="0" y="35" font-family="Cascadia" font-size="36px" fill="#2b8a3e" text-anchor="start">2</text></g><g transform="translate(10 312) rotate(0 10.5 22)"><text x="0" y="35" font-family="Cascadia" font-size="36px" fill="#e67700" text-anchor="start">3</text></g><g transform="translate(321 227) rotate(0 10.5 22)"><text x="0" y="35" font-family="Cascadia" font-size="36px" fill="#1864ab" text-anchor="start">2</text></g></svg>